<?xml version="1.0" encoding="UTF-8"?>
<svg width="74px" height="65px" viewBox="0 0 74 65" version="1.1" xmlns="http://www.w3.org/2000/svg" xmlns:xlink="http://www.w3.org/1999/xlink">
    <!-- Generator: Sketch 49.3 (51167) - http://www.bohemiancoding.com/sketch -->
    <title>avatar</title>
    <desc>Created with Sketch.</desc>
    <defs></defs>
    <g id="avatar" stroke="none" stroke-width="1" fill="none" fill-rule="evenodd">
        <g id="editing" transform="translate(12.000000, 11.000000)" fill-rule="nonzero">
            <g id="Group" fill="#448AFF">
                <path d="M23.4375,13.8214286 C23.4375,15.517613 22.038269,16.8928571 20.3125,16.8928571 C18.586731,16.8928571 17.1875,15.517613 17.1875,13.8214286 C17.1875,12.1252441 18.586731,10.75 20.3125,10.75 C22.038269,10.75 23.4375,12.1252441 23.4375,13.8214286 Z" id="Shape"></path>
                <polygon id="Shape" points="7.08007812 0 8.54492187 0 8.54492187 4.60714286 7.08007812 4.60714286"></polygon>
                <polygon id="Shape" points="41.4550781 0 42.9199219 0 42.9199219 4.60714286 41.4550781 4.60714286"></polygon>
                <polygon id="Shape" points="7.08007812 38.3928571 8.54492187 38.3928571 8.54492187 43 7.08007812 43"></polygon>
                <polygon id="Shape" points="41.4550781 38.3928571 42.9199219 38.3928571 42.9199219 43 41.4550781 43"></polygon>
                <polygon id="Shape" points="0 6.95870536 4.6875 6.95870536 4.6875 8.3984375 0 8.3984375"></polygon>
                <polygon id="Shape" points="45.3125 6.95870536 50 6.95870536 50 8.3984375 45.3125 8.3984375"></polygon>
                <polygon id="Shape" points="0 34.6015625 4.6875 34.6015625 4.6875 36.0412946 0 36.0412946"></polygon>
                <polygon id="Shape" points="45.3125 34.6015625 50 34.6015625 50 36.0412946 45.3125 36.0412946"></polygon>
            </g>
            <polygon id="Shape" fill="#000000" points="37 10 38 10 38 11 37 11"></polygon>
            <path d="M7,7 L7,36 L43,36 L43,7 L7,7 Z M41.5286104,8.43564356 L41.5286104,26.9075908 L39.4299643,26.9075908 L28.1389646,15.8908957 L20.2915531,23.5476614 L17.1525886,20.4849551 L10.5700357,26.9075908 L8.47138965,26.9075908 L8.47138965,8.43564356 L41.5286104,8.43564356 Z M21.6545044,26.9075908 L12.6506727,26.9075908 L17.1525886,22.5150449 L21.6545044,26.9075908 Z M23.7351414,26.9075908 L21.3318716,24.5627063 L28.1389646,17.9209855 L37.3493273,26.9075908 L23.7351414,26.9075908 Z M8.47138965,34.5643564 L8.47138965,28.3432343 L41.5286104,28.3432343 L41.5286104,34.5643564 L8.47138965,34.5643564 Z" id="Shape" fill="#000000"></path>
            <polygon id="Shape" fill="#000000" points="11 21 12 21 12 22 11 22"></polygon>
        </g>
    </g>
</svg>